<svg xmlns="http://www.w3.org/2000/svg" width="180" height="180" viewBox="0 0 180 180" fill="none" role="img" aria-labelledby="title desc"><title id="title">vitepress-build-check book-open-check icon</title><desc id="desc">Build and verify VitePress documentation</desc><circle cx="90" cy="90" r="76" fill="#eeecfa"/><g transform="translate(60 60) scale(2.5)" stroke="#6f42c1" stroke-width="1.7" stroke-linecap="round" stroke-linejoin="round"><path d="M12 7v14 M3 5a2 2 0 0 1 2-2h5a2 2 0 0 1 2 2v16a2 2 0 0 0-2-2H5a2 2 0 0 0-2 2z M21 5a2 2 0 0 0-2-2h-5a2 2 0 0 0-2 2 M15 13l2 2 4-4"/></g></svg>
